<svg width="0" height="0">
    <symbol id="instagram" viewBox="0 0 33 33" fill="none" xmlns="http://www.w3.org/2000/svg">
        <path d="M27.9783 0H5.02174C2.25333 0 0 2.25261 0 5.02174V13.6304V27.9783C0 30.7474 2.25333 33 5.02174 33H27.9783C30.7467 33 33 30.7474 33 27.9783V13.6304V5.02174C33 2.25261 30.7467 0 27.9783 0ZM31.5652 27.9783C31.5652 29.9561 29.9561 31.5652 27.9783 31.5652H5.02174C3.04389 31.5652 1.43478 29.9561 1.43478 27.9783V14.3478H7.425C7.41137 14.4059 7.40635 14.4655 7.39415 14.5236C7.3425 14.7618 7.29946 15.0014 7.26717 15.2438C7.25426 15.3371 7.24063 15.4304 7.2313 15.5251C7.19687 15.8472 7.17391 16.1714 7.17391 16.5C7.17391 21.6423 11.3577 25.8261 16.5 25.8261C21.6423 25.8261 25.8261 21.6423 25.8261 16.5C25.8261 16.1714 25.8031 15.8465 25.7694 15.5236C25.7601 15.4304 25.7465 15.3385 25.7335 15.246C25.7005 14.9999 25.6575 14.7567 25.6044 14.5157C25.5922 14.4597 25.5879 14.4023 25.5743 14.3471H31.5652V27.9783ZM8.6087 16.5C8.6087 15.5918 8.76078 14.708 9.06352 13.8686C10.1705 10.7221 13.1591 8.6087 16.5 8.6087C16.9175 8.6087 17.33 8.6417 17.7332 8.70554C20.3567 9.12163 22.6215 10.8434 23.7083 13.294C23.7916 13.4812 23.8676 13.6728 23.9365 13.8686C23.9365 13.8693 23.9372 13.8693 23.9372 13.87C23.9379 13.8715 23.9379 13.8722 23.9386 13.8736C24.2392 14.708 24.3913 15.5918 24.3913 16.5C24.3913 20.851 20.851 24.3913 16.5 24.3913C12.149 24.3913 8.6087 20.851 8.6087 16.5ZM31.5652 12.913H25.1065C25.0915 12.8772 25.0735 12.8435 25.0585 12.8076C25.0154 12.7064 24.9681 12.6082 24.9215 12.5099C24.8669 12.3937 24.8117 12.2782 24.7522 12.1655C24.7012 12.068 24.6467 11.9725 24.5929 11.8778C24.5305 11.7688 24.4673 11.6605 24.4013 11.5543C24.3425 11.4603 24.2815 11.3685 24.2198 11.2774C24.151 11.1755 24.0807 11.0744 24.0075 10.9754C23.9415 10.8857 23.8741 10.7982 23.8052 10.7114C23.7292 10.616 23.6517 10.5213 23.5728 10.4294C23.501 10.3455 23.4271 10.263 23.3525 10.1819C23.27 10.093 23.1861 10.0055 23.1007 9.91937C23.0225 9.84117 22.9436 9.7637 22.8625 9.68837C22.7743 9.60587 22.6832 9.52552 22.5921 9.44661C22.5089 9.37487 22.4257 9.30385 22.3396 9.23498C22.2449 9.15893 22.148 9.08576 22.0505 9.0133C21.9622 8.94802 21.8747 8.88274 21.7843 8.82104C21.6839 8.75217 21.5813 8.68617 21.478 8.62161C21.3862 8.5635 21.2943 8.50467 21.2003 8.45015C21.0942 8.38846 20.9858 8.33035 20.8775 8.27296C20.7821 8.22202 20.6867 8.17037 20.5891 8.1223C20.4772 8.06778 20.3639 8.01828 20.2498 7.96807C20.1515 7.92502 20.054 7.87983 19.9542 7.84037C19.8366 7.79302 19.7161 7.75213 19.5955 7.70909C19.4965 7.67393 19.3983 7.63735 19.2978 7.60507C19.1716 7.56561 19.0439 7.53261 18.9155 7.49817C18.8172 7.47163 18.7203 7.44293 18.6213 7.41926C18.485 7.3877 18.3466 7.3633 18.2088 7.33748C18.1156 7.32026 18.023 7.29874 17.929 7.28439C17.7741 7.26 17.6163 7.24494 17.4592 7.22844C17.3795 7.22054 17.3013 7.20763 17.221 7.20117C16.9814 7.18396 16.7418 7.17391 16.5 7.17391C16.2582 7.17391 16.0186 7.18396 15.7805 7.20261C15.7001 7.20907 15.6219 7.22126 15.5423 7.22987C15.3852 7.24637 15.2281 7.26144 15.0731 7.28583C14.9777 7.30089 14.8852 7.3217 14.7905 7.33963C14.6534 7.36546 14.5157 7.38913 14.3808 7.4207C14.2797 7.44437 14.1814 7.47378 14.0817 7.50104C13.9554 7.53476 13.8292 7.56776 13.705 7.6065C13.6025 7.63878 13.5027 7.6768 13.4016 7.71196C13.2839 7.75357 13.1656 7.79446 13.0493 7.84037C12.9468 7.88126 12.8463 7.92717 12.7452 7.97165C12.6347 8.02044 12.5235 8.0685 12.4152 8.12159C12.3133 8.17109 12.2143 8.22489 12.1146 8.27798C12.0106 8.33322 11.9073 8.38846 11.8054 8.448C11.7064 8.50611 11.6095 8.5678 11.5127 8.62878C11.4151 8.69048 11.3183 8.75217 11.2229 8.81746C11.1267 8.88346 11.0335 8.95233 10.9395 9.02191C10.8484 9.08935 10.758 9.1575 10.669 9.22852C10.5765 9.30241 10.4868 9.37917 10.3972 9.45665C10.3125 9.52983 10.2293 9.60372 10.1475 9.67976C10.06 9.76154 9.97461 9.84476 9.88996 9.92941C9.81176 10.0083 9.73428 10.088 9.65896 10.1697C9.57717 10.258 9.49754 10.3477 9.41863 10.4395C9.34617 10.5241 9.27515 10.6102 9.20557 10.6977C9.13096 10.7917 9.05778 10.8864 8.98604 10.9833C8.91861 11.0744 8.85404 11.1676 8.7902 11.2616C8.72348 11.3599 8.65748 11.4589 8.59435 11.5608C8.53265 11.6598 8.47383 11.7609 8.41572 11.8621C8.35761 11.9632 8.30022 12.0644 8.2457 12.1684C8.1883 12.2774 8.13522 12.3893 8.08213 12.5013C8.03478 12.6017 7.98672 12.7021 7.94224 12.8047C7.92646 12.8413 7.9078 12.8757 7.89274 12.9123H1.43478V5.02174C1.43478 3.04389 3.04389 1.43478 5.02174 1.43478H27.9783C29.9561 1.43478 31.5652 3.04389 31.5652 5.02174V12.913Z" fill="currentColor"/>
        <path d="M16.5 11.4783C13.7316 11.4783 11.4783 13.7309 11.4783 16.5C11.4783 19.2691 13.7316 21.5217 16.5 21.5217C19.2684 21.5217 21.5217 19.2691 21.5217 16.5C21.5217 13.7309 19.2684 11.4783 16.5 11.4783ZM16.5 20.0869C14.5222 20.0869 12.9131 18.4778 12.9131 16.5C12.9131 14.5222 14.5222 12.913 16.5 12.913C18.4779 12.913 20.087 14.5222 20.087 16.5C20.087 18.4778 18.4779 20.0869 16.5 20.0869Z" fill="currentColor"/>
        <path d="M27.9783 4.30435H25.8261C25.4294 4.30435 25.1087 4.62574 25.1087 5.02174V7.17392C25.1087 7.56992 25.4294 7.89131 25.8261 7.89131H27.9783C28.375 7.89131 28.6957 7.56992 28.6957 7.17392V5.02174C28.6957 4.62574 28.375 4.30435 27.9783 4.30435ZM27.2609 6.45652H26.5435V5.73913H27.2609V6.45652Z" fill="currentColor"/>
    </symbol>
    <symbol id="mail" viewBox="0 0 33 33" fill="none" xmlns="http://www.w3.org/2000/svg">
        <rect x="0.65" y="0.65" width="31.7" height="31.7" rx="4.35" stroke="currentColor" stroke-width="1.3"/>
        <path d="M26.8204 9H6.17951C5.53075 9 5 9.55383 5 10.2307V23.7692C5 24.4461 5.53075 25 6.17951 25H26.8205C27.4692 25 28 24.4461 28 23.7692V10.2307C28 9.55383 27.4692 9 26.8204 9ZM26.3778 9.92301L17.1785 17.1231C17.0131 17.2544 16.7592 17.3366 16.4999 17.3354C16.2407 17.3366 15.9869 17.2544 15.8214 17.1231L6.62208 9.92301H26.3778ZM21.4638 17.5982L26.4767 24.0597C26.4817 24.0662 26.4878 24.0711 26.4932 24.077H6.50677C6.51207 24.0708 6.51827 24.0662 6.5233 24.0597L11.5361 17.5982C11.6897 17.4 11.6606 17.1095 11.4704 16.9489C11.2805 16.7886 11.0021 16.819 10.8485 17.0172L5.8846 23.4157V10.4999L15.291 17.8615C15.6445 18.1362 16.0747 18.2572 16.4999 18.2584C16.9245 18.2575 17.355 18.1365 17.7088 17.8615L27.1152 10.4999V23.4156L22.1515 17.0172C21.9978 16.8191 21.7192 16.7886 21.5296 16.9489C21.3394 17.1092 21.3102 17.4 21.4638 17.5982Z" fill="currentColor"/>
    </symbol>
    <symbol id="telegram" viewBox="0 0 33 33" fill="none" xmlns="http://www.w3.org/2000/svg">
        <path d="M24.8789 3.41602C24.8789 3.77202 24.5904 4.06055 24.2344 4.06055C23.8784 4.06055 23.5898 3.77202 23.5898 3.41602C23.5898 3.06001 23.8784 2.77148 24.2344 2.77148C24.5904 2.77148 24.8789 3.06001 24.8789 3.41602Z" fill="currentColor"/>
        <path d="M25.6116 9.13195L6.59789 16.5441C6.3504 16.6405 6.18725 16.8792 6.1875 17.145C6.18775 17.4107 6.3509 17.6491 6.59864 17.7453L10.306 19.1856C10.7304 20.2466 12.6537 25.0567 12.6842 25.1292C12.8629 25.5521 13.4125 25.6561 13.733 25.3346L16.6045 22.4632L21.8997 26.6725C22.2703 26.9671 22.8292 26.7742 22.931 26.3039L26.4759 9.86838C26.5814 9.37592 26.0977 8.94287 25.6116 9.13195ZM18.8223 13.162L10.7408 17.9716L8.60928 17.1435L18.8223 13.162ZM20.7272 13.5286L14.1321 19.5441C14.0465 19.6224 13.976 19.7335 13.944 19.8533C13.9438 19.8538 13.9435 19.8546 13.9435 19.8551L13.1532 22.8333L11.6033 18.9583L20.7272 13.5286ZM14.9368 21.1379L15.5888 21.656L14.5143 22.7305L14.9368 21.1379ZM21.8894 25.0176C20.659 24.0395 16.7004 20.8934 15.5596 19.9868L24.7905 11.5671L21.8894 25.0176Z" fill="currentColor"/>
        <path d="M29.7773 0H3.22266C1.44566 0 0 1.44566 0 3.22266V29.7773C0 31.5543 1.44566 33 3.22266 33H29.7773C31.5543 33 33 31.5543 33 29.7773V3.22266C33 1.44566 31.5543 0 29.7773 0ZM31.7109 29.7773C31.7109 30.8436 30.8436 31.7109 29.7773 31.7109H3.22266C2.15641 31.7109 1.28906 30.8436 1.28906 29.7773V3.22266C1.28906 2.15641 2.15641 1.28906 3.22266 1.28906H29.7773C30.8436 1.28906 31.7109 2.15641 31.7109 3.22266V29.7773Z" fill="currentColor"/>
        <path d="M8.76562 4.06055H21.6562C22.0123 4.06055 22.3008 3.77202 22.3008 3.41602C22.3008 3.06001 22.0123 2.77148 21.6562 2.77148H8.76562C8.40962 2.77148 8.12109 3.06001 8.12109 3.41602C8.12109 3.77202 8.40962 4.06055 8.76562 4.06055Z" fill="currentColor"/>
    </symbol>
    <symbol id="vkontakte" viewBox="0 0 33 33" fill="none" xmlns="http://www.w3.org/2000/svg">
        <path d="M28.0236 22.0924L27.6965 21.5582C27.0574 20.5142 26.2839 19.5569 25.3975 18.7129L24.3041 17.6717C24.2002 17.5727 24.1846 17.4156 24.267 17.2981L25.76 15.1706C25.9753 14.8638 26.174 14.5407 26.3506 14.2103L27.6264 11.8232C27.8487 11.4072 27.8369 10.9171 27.5945 10.5124C27.3523 10.1077 26.9259 9.86565 26.4543 9.86513L23.6928 9.86197C23.6922 9.86197 23.6917 9.86197 23.6911 9.86197C23.1126 9.86197 22.5886 10.2042 22.3562 10.734L22.0637 11.4004C21.3174 13.1007 20.2988 14.6511 19.0351 16.0104V11.145C19.0351 10.4372 18.4593 9.86133 17.7515 9.86133H13.8404C13.1982 9.86133 12.6758 10.3838 12.6758 11.026C12.6758 11.2712 12.7514 11.5062 12.8944 11.7052L13.168 12.0864C13.4364 12.4601 13.5782 12.9007 13.5782 13.3608V16.916C13.0959 16.3558 12.5086 15.5951 12.0115 14.7206C11.2502 13.3812 10.7046 11.8195 10.4471 11.0077C10.2296 10.322 9.60024 9.86133 8.88101 9.86133H6.08413C5.68942 9.86133 5.32642 10.0418 5.08794 10.3565C4.84966 10.6712 4.77431 11.0696 4.88137 11.4497L5.40312 13.3014C5.72287 14.4365 6.16244 15.5415 6.70958 16.5858C6.87471 16.901 7.26414 17.0228 7.57957 16.8576C7.89494 16.6924 8.01656 16.3028 7.85137 15.9875C7.34573 15.0223 6.93949 14.001 6.6439 12.9519L6.13634 11.1504H8.88107C9.03595 11.1504 9.1715 11.2496 9.21836 11.3974C9.49119 12.2574 10.0713 13.9156 10.8909 15.3575C11.5634 16.5406 12.3793 17.5262 12.9455 18.1447C13.2556 18.4835 13.7328 18.5951 14.1612 18.4286C14.5901 18.262 14.8672 17.857 14.8672 17.397V13.3608C14.8672 12.6293 14.6417 11.9287 14.2152 11.3346L14.0829 11.1504H17.7461V16.3192C17.7461 16.6974 17.936 17.0451 18.254 17.2495C18.572 17.454 18.9672 17.4823 19.3113 17.3253L19.577 17.204C19.6995 17.1481 19.8082 17.0702 19.9004 16.9723C21.2992 15.4869 22.4242 13.7865 23.2441 11.9183L23.5366 11.2519C23.5635 11.1905 23.6241 11.151 23.6911 11.151H23.6913L26.4528 11.1541C26.4622 11.1541 26.4764 11.1542 26.4886 11.1744C26.5007 11.1947 26.494 11.2072 26.4896 11.2156L25.2138 13.6026C25.0616 13.8873 24.8904 14.1657 24.7049 14.4301L23.2119 16.5576C22.76 17.2016 22.8455 18.0627 23.4152 18.6052L24.5086 19.6464C25.3138 20.4132 26.0166 21.2829 26.5972 22.2312L26.9243 22.7655C26.9321 22.7783 26.956 22.8174 26.9263 22.8706C26.8965 22.9238 26.8506 22.9238 26.8356 22.9238H24.4515C24.1452 22.9238 23.847 22.7978 23.6335 22.5782L21.2496 20.1271C20.6879 19.5495 19.9749 19.1528 19.1879 18.98C18.8351 18.9025 18.471 18.9879 18.1893 19.2144C17.9077 19.441 17.7461 19.7781 17.7461 20.1395V22.5479C17.7461 22.7552 17.5775 22.9238 17.3702 22.9238C15.5228 22.9238 13.6973 22.3057 12.2299 21.1834C11.6388 20.7313 11.0749 20.2326 10.5541 19.7014C10.3049 19.4473 9.89685 19.4431 9.64259 19.6924C9.38838 19.9416 9.38439 20.3497 9.63356 20.6039C10.1971 21.1787 10.8071 21.7181 11.4468 22.2073C13.1377 23.5006 15.2413 24.2129 17.3701 24.2129C18.2882 24.2129 19.0351 23.466 19.0351 22.5479V20.2692C19.526 20.4003 19.9698 20.6602 20.3255 21.0259L22.7094 23.477C23.1641 23.9447 23.7991 24.2129 24.4515 24.2129H26.8356C27.3392 24.2129 27.8048 23.94 28.0508 23.5007C28.2969 23.0615 28.2865 22.5218 28.0236 22.0924Z" fill="currentColor"/>
        <path d="M9.02704 17.8892L9.01989 17.8792C8.81241 17.5899 8.40984 17.5235 8.12051 17.7309C7.83124 17.9384 7.76486 18.341 7.97227 18.6303C7.97252 18.6308 7.97639 18.6361 7.97665 18.6365L8.50323 18.2647L7.97942 18.6403C8.1053 18.8159 8.3031 18.9093 8.50381 18.9093C8.63375 18.9093 8.76504 18.8701 8.8788 18.7885C9.16806 18.5811 9.23445 18.1784 9.02704 17.8892Z" fill="currentColor"/>
        <path d="M13.2041 28.6172H7.95117C7.59526 28.6172 7.30664 28.9057 7.30664 29.2617C7.30664 29.6177 7.59526 29.9062 7.95117 29.9062H13.2041C13.5601 29.9062 13.8486 29.6177 13.8486 29.2617C13.8486 28.9057 13.56 28.6172 13.2041 28.6172Z" fill="currentColor"/>
        <path d="M16.1368 28.6172H16.1291C15.7732 28.6172 15.4846 28.9057 15.4846 29.2617C15.4846 29.6177 15.7732 29.9062 16.1291 29.9062H16.1368C16.4927 29.9062 16.7813 29.6177 16.7813 29.2617C16.7813 28.9057 16.4927 28.6172 16.1368 28.6172Z" fill="currentColor"/>
        <path d="M28.7461 0H4.25391C1.90826 0 0 1.90826 0 4.25391V28.7461C0 31.0917 1.90826 33 4.25391 33H28.7461C31.0917 33 33 31.0917 33 28.7461V4.25391C33 1.90826 31.0917 0 28.7461 0ZM31.7109 28.7461C31.7109 30.3809 30.3809 31.7109 28.7461 31.7109H4.25391C2.61912 31.7109 1.28906 30.3809 1.28906 28.7461V4.25391C1.28906 2.61912 2.61912 1.28906 4.25391 1.28906H28.7461C30.3809 1.28906 31.7109 2.61912 31.7109 4.25391V28.7461Z" fill="currentColor"/>
    </symbol>
    <symbol id="phone" viewBox="0 0 33 33" fill="none" xmlns="http://www.w3.org/2000/svg">
        <path d="M4.95978 28.0528L6.57621 22.3118C5.53675 20.5459 4.98947 18.5367 4.98947 16.4727C4.98947 10.1175 10.1598 4.9472 16.5149 4.9472C22.8701 4.9472 28.0403 10.1175 28.0403 16.4727C28.0403 22.8278 22.8701 27.9981 16.5149 27.9981C14.5347 27.9981 12.5957 27.4913 10.8803 26.5288L4.95978 28.0528ZM11.183 24.432L11.5358 24.6474C13.0314 25.5604 14.7532 26.043 16.5149 26.043C21.792 26.043 26.0852 21.7498 26.0852 16.4727C26.0852 11.1956 21.792 6.90231 16.5149 6.90231C11.2378 6.90231 6.94457 11.1956 6.94457 16.4727C6.94457 18.3114 7.46716 20.097 8.45572 21.6364L8.6933 22.0063L7.76245 25.3125L11.183 24.432Z" fill="currentColor"/>
        <path d="M13.277 11.1084L12.5291 11.0676C12.2942 11.0548 12.0638 11.1333 11.8863 11.2875C11.5237 11.6024 10.944 12.2111 10.7659 13.0043C10.5004 14.1869 10.9107 15.6352 11.9728 17.0834C13.0349 18.5316 15.0141 20.8488 18.5139 21.8384C19.6417 22.1573 20.5289 21.9423 21.2134 21.5044C21.7556 21.1577 22.1293 20.601 22.264 19.9718L22.3834 19.4141C22.4213 19.2368 22.3313 19.057 22.1666 18.9811L19.6391 17.816C19.475 17.7404 19.2805 17.7882 19.1701 17.9312L18.1779 19.2176C18.1029 19.3147 17.9746 19.3533 17.8587 19.3126C17.1792 19.0738 14.9031 18.1205 13.6541 15.7147C13.6 15.6103 13.6134 15.4837 13.6902 15.3947L14.6385 14.2977C14.7354 14.1856 14.7599 14.0281 14.7017 13.892L13.6122 11.3431C13.5542 11.2074 13.4242 11.1164 13.277 11.1084Z" fill="currentColor"/>
        <rect x="0.65" y="0.65" width="31.7" height="31.7" rx="4.35" stroke="currentColor" stroke-width="1.3"/>
    </symbol>
    <symbol id="award" viewBox="0 0 48 48" fill="none" xmlns="http://www.w3.org/2000/svg">
        <path fill-rule="evenodd" clip-rule="evenodd" d="M12 7C12 6.73478 12.1054 6.48043 12.2929 6.29289C12.4804 6.10536 12.7348 6 13 6H35C35.2652 6 35.5196 6.10536 35.7071 6.29289C35.8946 6.48043 36 6.73478 36 7V8H41C41.2652 8 41.5196 8.10536 41.7071 8.29289C41.8946 8.48043 42 8.73478 42 9V15C42 16.3261 41.4732 17.5979 40.5355 18.5355C39.5979 19.4732 38.3261 20 37 20H35.317C34.6022 22.0171 33.3618 23.8068 31.7238 25.184C30.0859 26.5612 28.1099 27.4761 26 27.834V34H32C32.2652 34 32.5196 34.1054 32.7071 34.2929C32.8946 34.4804 33 34.7348 33 35V41C33 41.2652 32.8946 41.5196 32.7071 41.7071C32.5196 41.8946 32.2652 42 32 42H16C15.7348 42 15.4804 41.8946 15.2929 41.7071C15.1054 41.5196 15 41.2652 15 41V35C15 34.7348 15.1054 34.4804 15.2929 34.2929C15.4804 34.1054 15.7348 34 16 34H22V27.834C19.8901 27.4761 17.9141 26.5612 16.2762 25.184C14.6382 23.8068 13.3978 22.0171 12.683 20H11C9.67392 20 8.40215 19.4732 7.46447 18.5355C6.52678 17.5979 6 16.3261 6 15V9C6 8.73478 6.10536 8.48043 6.29289 8.29289C6.48043 8.10536 6.73478 8 7 8H12V7ZM36 16V10H40V15C40 15.7956 39.6839 16.5587 39.1213 17.1213C38.5587 17.6839 37.7956 18 37 18H36V16ZM12 10H8V15C8 15.7956 8.31607 16.5587 8.87868 17.1213C9.44129 17.6839 10.2044 18 11 18H12V10Z" fill="currentColor"/>
    </symbol>
    <symbol id="university" viewBox="0 0 16 16" fill="none" xmlns="http://www.w3.org/2000/svg">
        <g clip-path="url(#clip0_1157_38)">
            <path d="M15.9999 6.27991C16.0003 6.0627 15.9431 5.84927 15.8342 5.66133C15.7253 5.47339 15.5686 5.31764 15.3799 5.20992L8.63994 1.20991C8.44569 1.09658 8.22483 1.03687 7.99994 1.03687C7.77504 1.03687 7.55418 1.09658 7.35994 1.20991L0.609935 5.20992C0.423407 5.32059 0.268887 5.4779 0.161563 5.66638C0.0542383 5.85486 -0.00219727 6.06802 -0.00219727 6.28491C-0.00219727 6.50181 0.0542383 6.71497 0.161563 6.90345C0.268887 7.09193 0.423407 7.24924 0.609935 7.35991L2.52994 8.47991V11.2899C2.53109 11.5095 2.58873 11.7251 2.69731 11.916C2.80589 12.1069 2.96176 12.2667 3.14994 12.3799L7.39994 14.8299C7.58969 14.935 7.80304 14.9901 8.01994 14.9901C8.23684 14.9901 8.45018 14.935 8.63994 14.8299L12.8899 12.3799C13.0781 12.2667 13.234 12.1069 13.3426 11.916C13.4511 11.7251 13.5088 11.5095 13.5099 11.2899V8.44991L14.7499 7.71991V10.4399H15.9999V6.27991ZM12.2699 11.2799L7.99994 13.7399L3.77994 11.2899V9.21992L7.35994 11.3499C7.55485 11.4613 7.77545 11.5199 7.99994 11.5199C8.22442 11.5199 8.44502 11.4613 8.63994 11.3499L12.2599 9.18991L12.2699 11.2799ZM7.99994 10.2699L1.24994 6.26991L7.99994 2.25991L14.7499 6.25992L7.99994 10.2699Z" fill="currentColor"/>
        </g>
        <defs>
            <clipPath id="clip0_1157_38">
                <rect width="16" height="16" fill="currentColor"/>
            </clipPath>
        </defs>
    </symbol>
    <symbol id="school" viewBox="0 0 48 48" fill="none" xmlns="http://www.w3.org/2000/svg">
        <path d="M4 32.3333C4 31.8028 4.21071 31.2941 4.58579 30.919C4.96086 30.544 5.46957 30.3333 6 30.3333H12V23.3333L24 15.3333L36 23.3333V30.3333H42C42.5304 30.3333 43.0391 30.544 43.4142 30.919C43.7893 31.2941 44 31.8028 44 32.3333V41.3333C44 41.8637 43.7893 42.3724 43.4142 42.7475C43.0391 43.1225 42.5304 43.3333 42 43.3333H4V32.3333Z" stroke="currentColor" stroke-width="4" stroke-linejoin="round"/>
        <path d="M24 5.33325V15.3333" stroke="currentColor" stroke-width="4" stroke-linecap="round"/>
        <path d="M18 43.3333H30M36 11.3333V5.33333C36 5.33333 34.5 8.33333 30 5.33333C25.5 2.33333 24 5.33333 24 5.33333V11.3333C24 11.3333 25.5 8.33333 30 11.3333C34.5 14.3333 36 11.3333 36 11.3333ZM28 43.3333V30.3333H20V43.3333H28Z" stroke="currentColor" stroke-width="4" stroke-linecap="round" stroke-linejoin="round"/>
    </symbol>
    <symbol id="child" viewBox="0 0 24 24" fill="none" xmlns="http://www.w3.org/2000/svg">
        <path d="M14.5 11.75C15.1904 11.75 15.75 11.1904 15.75 10.5C15.75 9.80964 15.1904 9.25 14.5 9.25C13.8096 9.25 13.25 9.80964 13.25 10.5C13.25 11.1904 13.8096 11.75 14.5 11.75Z" fill="currentColor"/>
        <path d="M9.5 11.75C10.1904 11.75 10.75 11.1904 10.75 10.5C10.75 9.80964 10.1904 9.25 9.5 9.25C8.80964 9.25 8.25 9.80964 8.25 10.5C8.25 11.1904 8.80964 11.75 9.5 11.75Z" fill="currentColor"/>
        <path d="M22.94 11.34C22.8145 10.6019 22.4847 9.9137 21.988 9.35343C21.4914 8.79315 20.8477 8.38319 20.13 8.17C19.6032 7.06254 18.8583 6.07278 17.94 5.26C16.36 3.85 14.28 3 12 3C9.72 3 7.64 3.85 6.06 5.26C5.14 6.07 4.39 7.06 3.87 8.17C3.15148 8.38172 2.50699 8.79123 2.01011 9.35177C1.51323 9.91231 1.18399 10.6013 1.06 11.34C1.02 11.55 1 11.77 1 12C1 12.23 1.02 12.45 1.06 12.66C1.18555 13.3981 1.51533 14.0863 2.01198 14.6466C2.50863 15.2068 3.15228 15.6168 3.87 15.83C4.38994 16.9305 5.12823 17.9137 6.04 18.72C7.62 20.14 9.71 21 12 21C14.29 21 16.38 20.14 17.97 18.72C18.87 17.92 19.62 16.93 20.14 15.83C20.8564 15.6163 21.4986 15.2059 21.9935 14.6456C22.4885 14.0852 22.8164 13.3973 22.94 12.66C22.98 12.45 23 12.23 23 12C23 11.77 22.98 11.55 22.94 11.34V11.34ZM19 14C18.9 14 18.81 13.98 18.71 13.97C18.51 14.64 18.22 15.26 17.85 15.83C16.6 17.74 14.45 19 12 19C9.55 19 7.4 17.74 6.15 15.83C5.78 15.26 5.49 14.64 5.29 13.97C5.19 13.98 5.1 14 5 14C3.9 14 3 13.1 3 12C3 10.9 3.9 10 5 10C5.1 10 5.19 10.02 5.29 10.03C5.49 9.36 5.78 8.74 6.15 8.17C7.4 6.26 9.55 5 12 5C14.45 5 16.6 6.26 17.85 8.17C18.22 8.74 18.51 9.36 18.71 10.03C18.81 10.02 18.9 10 19 10C20.1 10 21 10.9 21 12C21 13.1 20.1 14 19 14ZM12 17C14.01 17 15.74 15.77 16.5 14H7.5C8.26 15.77 9.99 17 12 17Z" fill="currentColor"/>
    </symbol>
    <symbol id="camp" viewBox="0 0 576 512" fill="none" xmlns="http://www.w3.org/2000/svg">
        <path d="M97.22 96.21C107.58 85.56 113.22 79.09 113.22 74.31C113.22 71.55 111.3 68.8 109.39 66.89C106.949 65.1096 104.021 64.1186 101 64.05C92.52 64.05 80.08 72.84 65.16 89.74C23.68 137 2.51001 182.81 3.37001 250.34C4.23001 317.87 20.84 367.34 57.43 412.21C76.22 435.86 90.62 448 100.9 448C104.053 447.736 107.014 446.378 109.27 444.16C111.18 441.4 113.08 438.53 113.08 435.78C113.08 430.15 109.22 423.58 99.88 415.23C55.43 372.9 32.56 318.23 32.4 250.23C32.25 188.8 54 137.83 97.22 96.21V96.21ZM239.47 420.07C240.05 420.44 240.38 420.62 240.38 420.62L239.47 420.07ZM333.26 420.62L333.43 420.49C333.24 420.62 333.17 420.67 333.26 420.62ZM336.39 262.44C320.15 258.29 386.8 179.55 268.34 85.27C268.34 85.27 283.88 134.65 205.51 244.84C131.24 349.19 228.97 413.57 239.51 420.07C232.78 415.72 192.11 384.37 249.06 291.43C260.06 273.13 274.59 256.56 292.56 219.27C292.56 219.27 308.47 241.72 300.16 290.4C287.7 364 354 342.91 355 343.94C377.75 370.72 337.28 417.45 333.42 420.49C338.91 416.84 451.13 342.49 366.42 232.39C360.43 238.4 352.62 266.59 336.39 262.44ZM510.88 89.69C496 72.79 483.52 64 475 64C471.979 64.0686 469.051 65.0596 466.61 66.84C464.7 68.75 462.78 71.5 462.78 74.26C462.78 79.04 468.38 85.52 478.78 96.16C522.01 137.77 543.78 188.75 543.6 250.22C543.44 318.22 520.6 372.85 476.12 415.22C466.78 423.57 462.94 430.14 462.92 435.77C462.92 438.52 464.82 441.39 466.73 444.15C468.988 446.367 471.947 447.729 475.1 448C485.38 448 499.78 435.87 518.57 412.21C555.16 367.36 571.71 317.83 572.63 250.34C573.55 182.85 552.32 137 510.88 89.69Z" fill="currentColor"/>
    </symbol>
    <symbol id="travel" viewBox="0 0 24 24" fill="none" xmlns="http://www.w3.org/2000/svg">
        <path d="M19.3 16.9C19.7 16.2 20 15.4 20 14.5C20 12 18 10 15.5 10C13 10 11 12 11 14.5C11 17 13 19 15.5 19C16.4 19 17.2 18.7 17.9 18.3L21.1 21.5L22.5 20.1L19.3 16.9V16.9ZM15.5 17C14.1 17 13 15.9 13 14.5C13 13.1 14.1 12 15.5 12C16.9 12 18 13.1 18 14.5C18 15.9 16.9 17 15.5 17ZM12 20V22C6.48 22 2 17.52 2 12C2 6.48 6.48 2 12 2C16.84 2 20.87 5.44 21.8 10H19.73C19.4181 8.79184 18.8279 7.67338 18.0066 6.73401C17.1853 5.79465 16.1557 5.06042 15 4.59V5C15 6.1 14.1 7 13 7H11V9C11 9.55 10.55 10 10 10H8V12H10V15H9L4.21 10.21C4.08 10.79 4 11.38 4 12C4 16.41 7.59 20 12 20Z" fill="currentColor"/>
    </symbol>
    <symbol id="work" viewBox="0 0 24 24" fill="none" xmlns="http://www.w3.org/2000/svg">
        <path d="M20 6H16V4C16 2.89 15.11 2 14 2H10C8.89 2 8 2.89 8 4V6H4C2.89 6 2.01 6.89 2.01 8L2 19C2 20.11 2.89 21 4 21H20C21.11 21 22 20.11 22 19V8C22 6.89 21.11 6 20 6ZM14 6H10V4H14V6Z" fill="currentColor"/>
    </symbol>
</svg>